<?xml version="1.0" encoding="iso-8859-1"?>
<!-- Uploaded to: SVG Repo, www.svgrepo.com, Generator: SVG Repo Mixer Tools -->
<svg fill="#000000" height="800px" width="800px" version="1.1" id="Layer_1" xmlns="http://www.w3.org/2000/svg" xmlns:xlink="http://www.w3.org/1999/xlink" 
	 viewBox="0 0 512 512" xml:space="preserve">
<g>
	<g>
		<path d="M362.735,0.028l-20.889-0.002C341.672,0.022,341.504,0,341.329,0c-0.174,0-0.342,0.022-0.515,0.026L85.339,0.006
			C73.557,0.005,64.004,9.557,64.004,21.34V192h-0.009v170.667h0.009v64.006c0,11.782,9.551,21.333,21.333,21.333h42.658V512
			l42.667-21.333L213.329,512v-63.994h149.406c47.089,0,85.269-38.181,85.269-85.269V85.297
			C448.004,38.208,409.824,0.028,362.735,0.028z M405.338,85.297V192h-42.675V42.694h0.071
			C386.26,42.694,405.338,61.772,405.338,85.297z M106.671,234.667h213.325V320H106.671V234.667z M362.662,234.667h42.667V320
			h-42.667V234.667z M106.671,42.675l213.325,0.016V192H106.671V42.675z M106.671,362.667h213.325v42.673H106.671V362.667z
			 M362.735,405.34h-0.073v-42.673h42.675v0.07C405.338,386.262,386.26,405.34,362.735,405.34z"/>
	</g>
</g>
</svg>